<svg width="375" height="71" viewBox="0 0 375 71" fill="none" className={className} xmlns="http://www.w3.org/2000/svg">
    <path d="M21.024 69V16.872H0.384V1.8H60.576V16.872H40.032V69H21.024ZM87.603 70.344C82.931 70.344 78.259 69.768 73.587 68.616C68.979 67.464 64.947 65.832 61.491 63.72L68.403 49.416C71.091 51.208 74.067 52.584 77.331 53.544C80.659 54.504 83.891 54.984 87.027 54.984C90.291 54.984 92.883 54.376 94.803 53.16C96.723 51.944 97.683 50.216 97.683 47.976C97.683 45.992 96.883 44.424 95.283 43.272C93.683 42.056 91.059 41.448 87.411 41.448H79.443V29.448L97.491 9.96L99.315 16.488H64.947V1.8H113.523V13.704L95.475 33.192L86.163 27.912H91.347C99.731 27.912 106.067 29.8 110.355 33.576C114.707 37.288 116.883 42.088 116.883 47.976C116.883 51.816 115.827 55.432 113.715 58.824C111.667 62.216 108.499 65 104.211 67.176C99.923 69.288 94.387 70.344 87.603 70.344Z" fill="#d8b4fe" />
    <path d="M187.88 70.344C182.568 70.344 177.64 69.512 173.096 67.848C168.616 66.12 164.712 63.688 161.384 60.552C158.12 57.416 155.56 53.736 153.704 49.512C151.848 45.224 150.92 40.52 150.92 35.4C150.92 30.28 151.848 25.608 153.704 21.384C155.56 17.096 158.12 13.384 161.384 10.248C164.712 7.112 168.616 4.712 173.096 3.048C177.64 1.32 182.568 0.455996 187.88 0.455996C194.088 0.455996 199.624 1.544 204.488 3.72C209.416 5.896 213.512 9.032 216.776 13.128L204.68 24.072C202.504 21.512 200.104 19.56 197.48 18.216C194.92 16.872 192.04 16.2 188.84 16.2C186.088 16.2 183.56 16.648 181.256 17.544C178.952 18.44 176.968 19.752 175.304 21.48C173.704 23.144 172.424 25.16 171.464 27.528C170.568 29.896 170.12 32.52 170.12 35.4C170.12 38.28 170.568 40.904 171.464 43.272C172.424 45.64 173.704 47.688 175.304 49.416C176.968 51.08 178.952 52.36 181.256 53.256C183.56 54.152 186.088 54.6 188.84 54.6C192.04 54.6 194.92 53.928 197.48 52.584C200.104 51.24 202.504 49.288 204.68 46.728L216.776 57.672C213.512 61.704 209.416 64.84 204.488 67.08C199.624 69.256 194.088 70.344 187.88 70.344ZM225.251 69V1.8H255.971C262.115 1.8 267.395 2.792 271.811 4.776C276.291 6.76 279.747 9.64 282.179 13.416C284.611 17.128 285.827 21.544 285.827 26.664C285.827 31.72 284.611 36.104 282.179 39.816C279.747 43.464 276.291 46.28 271.811 48.264C267.395 50.184 262.115 51.144 255.971 51.144H235.811L244.259 43.176V69H225.251ZM266.819 69L250.115 44.52H270.371L287.171 69H266.819ZM244.259 45.192L235.811 36.456H254.819C258.787 36.456 261.731 35.592 263.651 33.864C265.635 32.136 266.627 29.736 266.627 26.664C266.627 23.528 265.635 21.096 263.651 19.368C261.731 17.64 258.787 16.776 254.819 16.776H235.811L244.259 8.04V45.192ZM296.314 69V1.8H311.962L339.802 47.496H331.546L358.618 1.8H374.266L374.458 69H356.986L356.794 28.392H359.77L339.514 62.376H331.066L310.234 28.392H313.882V69H296.314Z" fill="#374151" />
</svg>
